# xmcd CD database file
#
# Track frame offsets:
#	150
#	10980
#	24921
#	44899
#	81460
#	92748
#	107482
#	117412
#	130675
#	148922
#	204617
#	222206
#	241594
#	250641
#	262907
#
# Disc length: 3876 seconds
#
# Revision: 1
# Processed by: cddbd v1.5PL3 Copyright (c) Steve Scherf et al.
# Submitted via: CDex 1.50beta10
#
DISCID=cd0f220f
DTITLE=Sonny Stitt - Rockin' At The Hi-Hat
DYEAR=1954
DGENRE=Jazz
TTITLE0=Rockin' At The Hi-Hat
TTITLE1=Lover
TTITLE2=They Can't Take That Away From Me
TTITLE3=S.O.S.
TTITLE4=Mass Ave Swing
TTITLE5=Indiana
TTITLE6=They Say it's Wonderful
TTITLE7=Flyin' Home
TTITLE8=Baritone Blues
TTITLE9=One O'clock Jump
TTITLE10=Body and Soul
TTITLE11=Jeeper's Creepers
TTITLE12=If I Had You
TTITLE13=Jumpin' with Symphony Sid
TTITLE14=How High The Moon
EXTD=YEAR: 1954
EXTT0=
EXTT1=
EXTT2=
EXTT3=
EXTT4=
EXTT5=
EXTT6=
EXTT7=
EXTT8=
EXTT9=
EXTT10=
EXTT11=
EXTT12=
EXTT13=
EXTT14=
PLAYORDER=
